<?xml version="1.0" encoding="UTF-8"?>
<svg id="Layer_1" xmlns="http://www.w3.org/2000/svg" xmlns:xlink="http://www.w3.org/1999/xlink" version="1.1" viewBox="0 0 3170.5 529.9">
  <!-- Generator: Adobe Illustrator 29.3.0, SVG Export Plug-In . SVG Version: 2.1.0 Build 146)  -->
  <path d="M658.5,281.9c24.1-57.8,22-102.6-6.2-134.8-28.2-31.9-81.5-48-159.6-48H227.8l-23.9,57.9h182.4c93,0,120,46.5,87.9,123.4-18.5,44.5-35,85.4-73.7,103.7-35.4,16.7-72,21.6-137.1,21.6h-84.3c0-.1,63-149.9,63-149.9h-79.4l-89.5,213.2h240c67.3,0,120.4-6.2,159.6-18.7,42.9-13.8,81.3-36.5,115.3-68.1,31.6-30.1,55.1-63.5,70.5-100.3M2314,98.7v.3c0,0-98.3,0-98.3,0l-377.9,354.3,147.7-354.3h-162l-195.7,153.6-100.7,82.9h-4.6l47.4-120.8-57.8-115.8h-162.8l-147.9,354.9-85.3-354.9h-178.3l-393.8,369.9h98.4l100.7-96.7h248.1l19.8,96.7h263.7l95.3-228.6c4.8-11.5,9.4-24.7,13.9-39.4.4,11.9,3.7,24.6,9.6,37.9l83.8,190.7h14.2l239.8-190c9-7.1,22.6-20,40.8-38.6-9.3,17.2-15.8,30.3-19.6,39.4l-95.3,228.6h174.1c0-.1,183.5-.1,183.5-.1l99.5-97.1h257.7l20.7,97.1h90.6l-88.3-370.1h-81.2ZM795.2,321.5l157-150.6,28.3,150.6h-185.4ZM2166.5,320.9l161.2-157.3,33.5,157.3h-194.8ZM3099.1,98.4h-267.2c-78.3,0-145,16.1-199.8,48.2-54.9,32.1-94.4,77.1-118.6,134.9-15.4,36.8-19.7,70.4-13.1,100.3,7.8,31.7,27.2,54.5,58.7,68.2,28.6,12.4,76.8,18.7,144.1,18.7h239.6l23.9-58.7h-135c-65,0-108.4-8.4-130-25.2-23.6-18.1-20.9-60.2-2.5-104.8,32.2-77.1,99.5-125.1,192.5-125.1h104.6l-24,58h79.4l47.5-114.4Z"/>
</svg>